<?xml version="1.0" encoding="UTF-8"?>
<svg width="403px" height="110px" viewBox="0 0 403 110" version="1.1" xmlns="http://www.w3.org/2000/svg" xmlns:xlink="http://www.w3.org/1999/xlink">
    <title>Group 4</title>
    <g id="Blok-ink-SB-Design-system-v1" stroke="none" stroke-width="1" fill="none" fill-rule="evenodd">
        <g id="00-Cover" transform="translate(-328.000000, -262.000000)">
            <g id="Group-4" transform="translate(328.000000, 262.000000)">
                <g id="Group-2">
                    <g id="Group">
                        <rect id="Rectangle" fill="#F5F5F5" x="15.7894737" y="44.5238095" width="84.2105263" height="65.4761905" rx="10"></rect>
                        <path d="M74.2105263,0 C79.7333738,-1.01453063e-15 84.2105263,4.4771525 84.2105263,10 L84.2105263,73.8095238 C84.2105263,79.3323713 79.7333738,83.8095238 74.2105263,83.8095238 L28.747,83.809 L15.7894737,97.5582524 L15.789,83.809 L10,83.8095238 C4.4771525,83.8095238 -1.10000309e-15,79.3323713 0,73.8095238 L0,10 C-2.45271059e-15,4.4771525 4.4771525,1.01453063e-15 10,0 L74.2105263,0 Z" id="Combined-Shape" fill="#00B3B0"></path>
                    </g>
                    <path d="M61.8864338,58.7024163 C61.1261582,60.1292921 59.9857448,61.3183552 58.6172488,62.1903349 C57.1727251,63.1415854 55.5761464,64.0135651 53.7514849,64.4099195 C51.9268235,64.8855447 49.9501069,65.2818991 47.8973628,65.2818991 L20.9836066,65.2818991 L20.9836066,20.8902077 L51.5466857,20.8902077 C53.0672369,20.8902077 54.3597054,21.2072912 55.5761464,21.9207291 C56.7165598,22.5548961 57.7809456,23.4268758 58.6172488,24.4573972 C60.3205272,26.6230837 61.2359524,29.3461508 61.2021858,32.1466723 C61.2021858,34.2077151 60.6699929,36.1894871 59.6816346,38.0919881 C58.6569553,40.0055964 57.0527183,41.5110024 55.119981,42.3726155 C57.5528629,43.0860534 59.4535519,44.3543875 60.8980756,46.1776176 C62.2665716,48.0801187 62.9508197,50.5375159 62.9508197,53.6290801 C62.9508197,55.6108521 62.5706819,57.2755405 61.8104063,58.7024163 L61.8864338,58.7024163 Z" id="Shape-path" fill="#FFFFFF"></path>
                </g>
            </g>
        </g>
    </g>
</svg>